<svg width="459" height="439" viewBox="0 0 459 439" fill="none" xmlns="http://www.w3.org/2000/svg">
<g clip-path="url(#clip0_903_4030)">
<path d="M431.894 316.276H87.63C81.2432 316.269 76.0675 310.869 76.0601 304.205V11.7463C76.0675 5.08283 81.2432 -0.316999 87.63 -0.324707H431.894C438.281 -0.31699 443.457 5.08284 443.464 11.7463V304.205C443.457 310.869 438.281 316.269 431.894 316.276Z" fill="#E6E6E6"/>
<path d="M398.445 308.134H95.4362C89.0493 308.126 83.8736 302.727 83.8662 296.063V19.8947C83.8736 13.2313 89.0493 7.83144 95.4362 7.82373H424.09C430.477 7.83145 435.653 13.2313 435.66 19.8947V269.307C435.637 290.741 418.989 308.11 398.445 308.134Z" fill="white"/>
<path d="M315.178 70.2697H176.811C175.163 70.2697 173.827 68.8759 173.827 67.1566C173.827 65.4373 175.163 64.0435 176.811 64.0435H315.178C316.826 64.0435 318.162 65.4373 318.162 67.1566C318.162 68.876 316.826 70.2697 315.178 70.2697Z" fill="#9146FE"/>
<path d="M385.223 103.485H176.811C175.163 103.485 173.827 102.091 173.827 100.372C173.827 98.6526 175.163 97.2588 176.811 97.2588H385.223C386.871 97.2588 388.207 98.6526 388.207 100.372C388.207 102.091 386.871 103.485 385.223 103.485Z" fill="#E6E6E6"/>
<path d="M385.223 136.7H176.811C175.163 136.7 173.827 135.306 173.827 133.587C173.827 131.867 175.163 130.474 176.811 130.474H385.223C386.871 130.474 388.207 131.867 388.207 133.587C388.207 135.306 386.871 136.7 385.223 136.7Z" fill="#E6E6E6"/>
<path d="M385.223 169.915H176.811C175.163 169.915 173.827 168.521 173.827 166.802C173.827 165.082 175.163 163.688 176.811 163.688H385.223C386.871 163.688 388.207 165.082 388.207 166.802C388.207 168.521 386.871 169.915 385.223 169.915Z" fill="#E6E6E6"/>
<path d="M385.223 203.13H176.811C175.163 203.13 173.827 201.736 173.827 200.016C173.827 198.297 175.163 196.903 176.811 196.903H385.223C386.871 196.903 388.207 198.297 388.207 200.016C388.207 201.736 386.871 203.13 385.223 203.13Z" fill="#E6E6E6"/>
<path d="M375.851 256.06C367.506 256.06 360.742 249.003 360.742 240.297C360.742 231.591 367.506 224.533 375.851 224.533C384.195 224.533 390.96 231.591 390.96 240.297C390.96 249.003 384.195 256.06 375.851 256.06Z" fill="#9146FE"/>
<path d="M384.351 239.548L380.068 233.025C379.673 232.42 378.883 232.264 378.303 232.676C377.723 233.088 377.573 233.913 377.968 234.517L377.972 234.523L380.742 238.742H369.889C369.066 238.739 368.397 239.433 368.395 240.292C368.392 241.151 369.057 241.849 369.881 241.852H380.878L377.972 246.278C377.578 246.883 377.729 247.708 378.309 248.119C378.886 248.527 379.671 248.374 380.068 247.776L384.351 241.253C384.635 240.723 384.635 240.078 384.351 239.548H384.351Z" fill="white"/>
<path d="M111.479 272.439C113.766 270.443 114.069 266.889 112.155 264.503C111.951 264.249 111.726 264.013 111.482 263.8L108.206 234.269L97.8052 236.781L103.585 264.775C101.816 267.3 102.343 270.844 104.764 272.691C106.789 274.235 109.565 274.131 111.479 272.439Z" fill="#FFB6B6"/>
<path d="M110.404 239.084L98.3623 246.922C98.3623 246.922 97.6294 251.515 96.8013 239.971C96.7149 238.766 97.5208 236.667 97.4322 235.43C97.3322 234.035 93.5015 233.4 93.4007 231.989C93.3288 230.984 94.4363 230.09 94.3647 229.087C94.2564 227.569 94.1488 226.06 94.0432 224.574C93.9547 223.332 92.6355 222.544 92.5505 221.345C92.4647 220.135 93.6132 218.515 93.5322 217.369C92.9253 208.775 95.0242 187.155 95.0242 186.715C94.862 185.612 94.4203 184.573 93.7446 183.707L94.3874 181.701L93.9624 177.938C93.4039 172.994 94.4002 167.994 96.8013 163.691L99.8596 161.602L113.97 186.364C108.032 207.791 104.156 216.208 110.404 239.084H110.404Z" fill="#9146FE"/>
<path d="M101.008 423.714H108.292L111.759 394.4H101.008V423.714Z" fill="#FFB6B6"/>
<path d="M98.631 418.509L110.269 417.785V422.987L121.333 430.959C122.748 431.978 123.103 434.002 122.126 435.479C121.545 436.358 120.587 436.882 119.563 436.882H105.708L103.32 431.737L102.387 436.882H97.1636L98.631 418.509H98.631Z" fill="#2F2E41"/>
<path d="M141.925 423.714H149.21L152.676 394.4H141.925V423.714Z" fill="#FFB6B6"/>
<path d="M139.548 418.509L151.186 417.785V422.987L162.25 430.959C163.666 431.978 164.021 434.002 163.044 435.479C162.462 436.358 161.504 436.882 160.48 436.882H146.625L144.237 431.737L143.305 436.882H138.081L139.548 418.509H139.548Z" fill="#2F2E41"/>
<path d="M97.9161 398.436H97.9444L99.3453 328.626C97.504 324.92 97.5628 320.499 99.5021 316.848L99.7027 316.469L99.1826 313.954C98.5147 310.723 98.8212 307.355 100.06 304.313L101.367 259.853C96.6979 228.283 118.949 207.694 118.949 207.694H152.283L159.439 233.346C164.17 281.433 163.311 350.44 155.804 395.84L156.009 395.948C156.815 396.417 157.126 397.464 156.715 398.327C156.368 399.375 155.489 400.01 154.752 399.745L137.149 399.106C136.342 398.637 136.031 397.589 136.443 396.727C136.789 395.678 137.668 395.043 138.405 395.309L139.602 395.94L138.367 393.317C136.852 390.1 137.145 386.276 139.13 383.351L138.914 377.577C137.043 375.29 136.42 372.165 137.265 369.29L138.452 365.246L137.049 327.8L137.333 319.4L136.749 309.869L134.051 267.001L123.837 319.717L113.404 398.966C113.915 399.447 114.139 400.176 113.991 400.877C113.77 401.817 112.953 402.471 112.026 402.452H97.8652C96.7998 402.451 95.937 401.549 95.938 400.438C95.9382 400.258 95.9615 400.078 96.0075 399.905C96.2531 399.022 97.0351 398.42 97.9161 398.436Z" fill="#2F2E41"/>
<path d="M178.92 260.964C180.802 258.55 180.452 255.002 178.139 253.038C177.892 252.829 177.628 252.643 177.35 252.482L168.756 224.137L159.001 228.666L169.775 255.004C168.497 257.834 169.66 261.209 172.373 262.542C174.643 263.657 177.349 263.005 178.92 260.964H178.92H178.92Z" fill="#FFB6B6"/>
<path d="M143.555 170.854C143.555 170.854 153.357 207.045 152.913 210.701C151.997 218.24 106.953 241.414 103.603 231.101L104.023 227.711C102.331 224.18 112.656 210.166 113.157 208.332C113.794 205.988 110.91 198.292 110.91 198.292C110.91 198.292 112.903 191.267 112.585 186.917C112.261 182.568 111.3 183.238 107.773 180.556C104.247 177.88 98.4741 165.502 98.4741 165.502C98.4741 165.502 101.039 153.456 101.039 151.112C101.039 148.768 111.577 144.775 112.856 143.44C113.413 142.665 113.882 141.825 114.254 140.937C114.513 140.395 114.348 139.14 114.625 138.519C114.802 138.113 115.421 138.365 115.604 137.947C115.781 137.541 115.628 137.073 115.805 136.673C116.035 136.144 116.589 135.683 116.807 135.184C117.809 132.896 118.665 131.032 118.93 131.032C119.567 131.032 140.099 134.046 140.099 134.046C141.217 135.849 142.505 137.531 143.944 139.066C146.19 141.404 156.704 147.095 156.704 147.095L143.555 170.854H143.555Z" fill="#9146FE"/>
<path d="M171.279 231.74C169.675 233.413 161.739 241.096 161.414 239.084C161.096 237.079 160.922 236.839 159.637 236.174C158.351 235.504 158.351 235.172 158.033 232.828C157.715 230.484 154.825 228.14 155.15 227.137C155.468 226.134 155.171 227.41 155.171 226.401C155.171 225.398 154.21 221.719 152.924 221.049C151.645 220.378 149.716 219.714 150.683 218.04C151.645 216.367 141.632 166.166 141.632 166.166L150.613 147.765L156.704 147.095C156.704 147.095 158.555 148.2 159.135 158.161C159.164 158.666 159.691 159.592 159.714 160.143C159.732 160.6 159.247 160.676 159.261 161.167C159.264 161.272 159.266 161.378 159.269 161.484C159.281 161.973 160.545 162.332 160.564 162.804C160.598 163.646 161.094 169.017 161.148 169.806C161.208 170.696 161.279 171.553 161.362 172.377C162.248 181.354 162.565 182.113 163.115 184.978C163.965 189.413 167.489 215.315 167.489 215.315C167.489 215.315 170.054 215.979 170.054 218.323C170.054 220.667 172.883 225.378 171.603 228.055C170.318 230.737 172.883 230.066 171.279 231.74H171.279Z" fill="#9146FE"/>
<path d="M127.625 130.345C136.026 130.345 142.837 123.239 142.837 114.473C142.837 105.708 136.026 98.6021 127.625 98.6021C119.223 98.6021 112.412 105.708 112.412 114.473C112.412 123.239 119.223 130.345 127.625 130.345Z" fill="#FFB8B8"/>
<path d="M94.8427 147.828C91.6235 146.638 88.4043 145.446 85.1851 144.251C85.74 143.28 86.4466 142.412 87.2758 141.684C90.3408 139.014 94.5714 138.531 98.4628 137.63C102.36 136.73 106.591 134.883 108.016 130.997C109.496 126.956 107.35 122.594 106.104 118.476C104.264 112.7 104.487 106.425 106.733 100.808C109.058 95.1843 113.762 91.012 119.456 89.5223C125.092 88.2161 131.463 90.3458 134.929 95.1586C139.55 93.7122 144.479 96.0928 146.412 100.705C147.304 102.823 147.166 105.26 146.042 107.255C144.839 109.153 142.268 110.124 140.331 109.069L141.454 106.097C137.982 107.326 135.724 113.875 136.193 117.672C136.656 121.461 138.777 124.781 140.929 127.876C143.082 130.971 145.376 134.098 146.301 137.798C147.633 143.119 145.832 148.935 142.502 153.201C139.172 157.467 134.479 160.362 129.619 162.492C125.981 164.087 122.201 165.303 118.333 166.121C119.024 164.718 119.708 163.315 120.399 161.913L112.203 167.086C110.618 167.247 109.021 167.343 107.424 167.375C102.774 167.459 98.0312 166.951 93.7759 165.014C89.5145 163.071 85.771 159.551 84.2292 154.977C83.7349 153.497 83.501 151.936 83.5386 150.37C87.3066 149.521 91.0746 148.673 94.8428 147.828H94.8427Z" fill="#2F2E41"/>
<path d="M241.851 438.091H213.637L213.516 437.861C213.155 437.179 212.807 436.455 212.481 435.712C209.575 429.221 208.347 421.797 207.263 415.247L206.447 410.309C206.173 408.65 207.239 407.073 208.83 406.787C209.608 406.647 210.408 406.842 211.046 407.327C215.334 410.582 219.624 413.834 223.915 417.083C225.54 418.316 227.395 419.744 229.172 421.287C229.344 420.418 229.523 419.546 229.702 418.687C230.046 417.041 231.603 415.996 233.181 416.354C233.953 416.53 234.625 417.024 235.042 417.724L238.343 423.257C240.751 427.298 242.876 431.28 242.443 435.574C242.445 435.627 242.441 435.679 242.432 435.73C242.345 436.436 242.184 437.129 241.953 437.798L241.851 438.091H241.851Z" fill="#F0F0F0"/>
<path d="M270.17 438.727L2.06269 439C1.50362 438.997 1.05277 438.521 1.05568 437.938C1.05859 437.359 1.50775 436.89 2.06269 436.887L270.17 436.615C270.729 436.618 271.18 437.093 271.177 437.676C271.174 438.255 270.725 438.724 270.17 438.727Z" fill="#CACACA"/>
</g>
<defs>
<clipPath id="clip0_903_4030">
<rect width="458" height="439" fill="white" transform="translate(0.5)"/>
</clipPath>
</defs>
</svg>
