<svg width="81" height="56" viewBox="0 0 81 56" fill="none" xmlns="http://www.w3.org/2000/svg">
<path d="M40.0274 34.0672C33.9054 34.0672 27.7925 34.0672 21.6705 34.0672C20.5323 34.0672 19.5227 33.7861 18.8068 32.8117C18.3662 32.2215 18.1184 31.5657 18.1184 30.8161C18.1092 28.5676 18.1092 26.319 18.1092 24.0705C18.1092 23.9487 18.1 23.8175 18.1276 23.6957C18.1826 23.3772 18.3662 23.1992 18.6966 23.2179C19.0179 23.2366 19.1005 23.4615 19.1097 23.7332C19.1372 24.4827 19.1647 25.2322 19.1739 25.9817C19.2014 27.6213 19.229 29.2609 19.2473 30.9005C19.2657 32.1465 20.1285 33.0366 21.3492 33.0647C22.469 33.0834 23.5796 33.0834 24.6994 33.0834C36.0072 33.0834 47.3059 33.0741 58.6138 33.0834C59.7336 33.0834 60.5137 32.5869 60.936 31.5376C61.0186 31.3408 61.0461 31.116 61.0461 30.9005C61.0553 23.6676 61.0553 16.4441 61.0553 9.21125C61.0553 8.63037 60.9818 8.54605 60.3302 8.54605C58.5128 8.52731 56.6863 8.53668 54.869 8.52731C54.7497 8.52731 54.5936 8.56479 54.511 8.50858C54.3275 8.38678 54.0888 8.23687 54.0337 8.04949C53.942 7.74032 54.2081 7.58105 54.4835 7.52483C54.6487 7.49672 54.8231 7.50609 54.9883 7.50609C56.7598 7.50609 58.5404 7.50609 60.3118 7.50609C60.9635 7.50609 61.0645 7.40303 61.0645 6.7472C61.0645 5.62293 61.0645 4.49865 61.0645 3.37437C61.0553 1.95028 60.1741 1.04149 58.7698 1.04149C53.5197 1.02275 48.2788 1.02275 43.0288 1.01338C41.2848 1.01338 39.5409 1.02275 37.797 1.01338C33.015 0.994643 28.2239 0.966536 23.4327 0.92906C23.2216 0.92906 22.9922 0.938429 22.7994 0.872846C22.6526 0.826001 22.4506 0.657359 22.4506 0.544931C22.4598 0.376289 22.5883 0.170171 22.7352 0.0764816C22.8728 -0.0172084 23.0839 0.00152963 23.2675 0.00152963C35.2087 0.00152963 47.1499 0.00152963 59.1003 0.00152963C60.6331 0.00152963 62.0374 1.46309 62.0374 3.01835C62.0374 12.3592 62.0374 21.6907 62.0466 31.0316C62.0466 32.362 60.9084 33.8985 59.3573 34.0297C59.036 34.0578 58.7148 34.0766 58.3935 34.0766C52.2715 34.0766 46.1494 34.0672 40.0274 34.0672Z" fill="#4832AB"/>
<path d="M35.5299 8.53667C30.4542 8.53667 25.3785 8.53667 20.2936 8.53667C19.5501 8.53667 19.1738 8.9208 19.1738 9.67969C19.1738 12.8651 19.1738 16.0506 19.1646 19.2361C19.1646 19.6202 19.1555 20.0231 19.0729 20.3978C19.0361 20.5665 18.8342 20.8007 18.6874 20.8101C18.5313 20.8194 18.311 20.6414 18.2101 20.4915C18.1091 20.3322 18.1091 20.1074 18.1091 19.9013C18.0999 14.2799 18.0908 8.65847 18.1183 3.03707C18.1183 2.16576 18.5589 1.4256 19.1646 0.81662C19.3941 0.591764 19.697 0.554288 19.8897 0.807251C19.9999 0.947786 20.0366 1.32255 19.9448 1.41624C19.1922 2.10954 19.1922 3.00896 19.183 3.91776C19.1738 4.9015 19.1738 5.88525 19.1555 6.86899C19.1463 7.30933 19.3574 7.49671 19.7612 7.49671C20.0182 7.49671 20.2844 7.49671 20.5414 7.49671C30.5551 7.50608 40.578 7.50608 50.5917 7.51545C50.8396 7.51545 51.0782 7.52482 51.326 7.55293C51.6381 7.58103 51.8584 7.72157 51.8308 8.08696C51.8033 8.41487 51.583 8.5273 51.2893 8.53667C51.17 8.53667 51.0415 8.53667 50.9222 8.53667C45.8006 8.53667 40.6698 8.53667 35.5299 8.53667Z" fill="#4832AB"/>
<path d="M35.3004 12.022C35.1627 12.2562 35.0801 12.4529 34.9516 12.6122C34.0062 13.7927 33.0517 14.9638 32.0971 16.135C31.5739 16.7814 31.5648 16.9126 32.0971 17.5778C33.07 18.777 34.0338 19.9762 35.0159 21.1755C35.2178 21.4284 35.3463 21.7189 35.0893 21.9718C34.8139 22.2435 34.511 22.1124 34.2908 21.8594C33.7309 21.2036 33.171 20.5384 32.6295 19.8638C31.9594 19.0393 31.2986 18.2055 30.6285 17.381C30.3624 17.0531 30.3624 16.7158 30.6102 16.3973C31.8676 14.8327 33.1343 13.2774 34.4101 11.7409C34.511 11.6285 34.7772 11.5723 34.9332 11.6191C35.0709 11.6378 35.1627 11.8533 35.3004 12.022Z" fill="#4832AB"/>
<path d="M45.4518 11.4507C45.6629 11.61 45.8556 11.713 45.9841 11.8629C47.1406 13.2776 48.2787 14.6924 49.4169 16.1071C49.885 16.6973 49.9033 16.969 49.4352 17.5499C48.3155 18.9646 47.1682 20.3606 46.0392 21.7659C45.9841 21.8409 45.9107 21.944 45.8465 21.9533C45.6078 21.9814 45.3049 22.0564 45.1397 21.9533C44.8827 21.7941 44.9653 21.4849 45.1489 21.2507C45.6904 20.5573 46.2411 19.8734 46.7918 19.1895C47.2875 18.5711 47.7923 17.9715 48.2787 17.3531C48.6367 16.9034 48.6092 16.7442 48.2512 16.3038C47.214 15.039 46.1769 13.7742 45.1672 12.4906C45.0479 12.3407 45.0204 12.0503 45.0571 11.8442C45.0663 11.713 45.2774 11.6193 45.4518 11.4507Z" fill="#4832AB"/>
<path d="M42.8176 11.9941C42.7533 12.2189 42.7258 12.3595 42.6707 12.4813C41.7712 14.43 40.8626 16.3788 39.9631 18.3369C39.4858 19.3768 39.0085 20.4168 38.5312 21.4568C38.4762 21.5879 38.4119 21.7097 38.3385 21.8221C38.1641 22.0938 37.8979 22.1875 37.6226 22.047C37.3288 21.8971 37.3564 21.616 37.4757 21.3537C37.9622 20.2669 38.4486 19.1801 38.9534 18.1027C39.8896 16.0602 40.835 14.0271 41.7804 11.9847C41.9181 11.6943 42.1108 11.4507 42.4504 11.5818C42.6156 11.6381 42.7166 11.8629 42.8176 11.9941Z" fill="#4832AB"/>
<path d="M48.5449 30.4509C47.572 30.4509 46.5899 30.4509 45.617 30.4509C45.4518 30.4509 45.259 30.4602 45.1214 30.3853C44.9929 30.3103 44.8552 30.1417 44.8552 30.0105C44.8552 29.8794 44.9837 29.692 45.103 29.6264C45.2499 29.5421 45.4518 29.5327 45.6353 29.5327C47.5904 29.5327 49.5454 29.5327 51.4912 29.5327C51.583 29.5327 51.6748 29.5327 51.7666 29.5515C52.0511 29.5889 52.2622 29.7576 52.198 30.0386C52.1521 30.2073 51.9134 30.4228 51.7482 30.4415C51.0782 30.4884 50.4082 30.4696 49.7381 30.4696C49.3343 30.4509 48.9396 30.4509 48.5449 30.4509Z" fill="#4832AB"/>
<path d="M44.8185 26.3188C45.8006 26.3188 46.7735 26.3188 47.7556 26.3188C48.0952 26.3188 48.3981 26.3938 48.3981 26.7967C48.3889 27.1808 48.0676 27.2557 47.7648 27.2557C45.7822 27.2651 43.7905 27.2651 41.7987 27.2557C41.4867 27.2557 41.1746 27.1621 41.1838 26.7873C41.1838 26.3751 41.505 26.3188 41.8355 26.3188C42.8267 26.3188 43.8272 26.3188 44.8185 26.3188Z" fill="#4832AB"/>
<path d="M31.1976 27.2651C30.4633 27.2651 29.7291 27.2839 28.9948 27.2464C28.8112 27.237 28.5818 27.059 28.4716 26.8997C28.4165 26.8154 28.5359 26.5624 28.6368 26.4313C28.6919 26.3563 28.8571 26.3282 28.9672 26.3282C30.4633 26.3188 31.9594 26.3282 33.4555 26.3188C33.7584 26.3188 33.9787 26.4406 33.997 26.7592C34.0154 27.1246 33.7401 27.237 33.4463 27.2464C32.7029 27.2557 31.9502 27.2464 31.1976 27.2464V27.2651Z" fill="#4832AB"/>
<path d="M35.0159 30.4507C34.3275 30.4507 33.6391 30.4507 32.9507 30.4507C32.6662 30.4507 32.4184 30.3945 32.4092 30.0291C32.4 29.6731 32.6111 29.5232 32.9323 29.5232C34.3183 29.5232 35.7134 29.5138 37.0994 29.5232C37.4114 29.5232 37.6317 29.6637 37.6225 30.0291C37.6134 30.4039 37.3472 30.432 37.0718 30.4414C36.3926 30.4507 35.7042 30.4414 35.0159 30.4507Z" fill="#4832AB"/>
<path d="M24.4973 4.21746C24.4973 4.89202 24.1302 5.29489 23.5061 5.30426C22.9003 5.31363 22.4138 4.83581 22.4138 4.23619C22.423 3.70216 22.9278 3.20561 23.4602 3.21497C24.0843 3.21497 24.4973 3.62721 24.4973 4.21746Z" fill="#4832AB"/>
<path d="M30.8947 5.30408C30.2614 5.31345 29.83 4.88248 29.8209 4.23602C29.8117 3.64577 30.2339 3.2429 30.858 3.22417C31.4087 3.20543 31.9135 3.68325 31.9227 4.22665C31.9411 4.80753 31.473 5.29471 30.8947 5.30408Z" fill="#4832AB"/>
<path d="M27.1683 5.30424C26.535 5.29487 26.1495 4.8639 26.1678 4.18933C26.1862 3.61782 26.6176 3.19622 27.1683 3.21496C27.7649 3.23369 28.1779 3.6553 28.1687 4.24555C28.1504 4.92011 27.7924 5.31361 27.1683 5.30424Z" fill="#4832AB"/>
<path d="M24.6442 26.3189C25.0664 26.3189 25.507 26.2721 25.92 26.3377C26.1495 26.3752 26.3514 26.6 26.5625 26.7405C26.3698 26.9092 26.1862 27.2184 25.9934 27.2277C25.0481 27.2746 24.1027 27.2652 23.1573 27.2184C22.9921 27.209 22.7443 26.9373 22.7167 26.7499C22.6616 26.4314 22.9278 26.3096 23.2215 26.3096C23.6988 26.3189 24.1761 26.3189 24.6442 26.3189Z" fill="#4832AB"/>
<path d="M28.4992 30.4411C28.0402 30.4411 27.5813 30.4411 27.1224 30.4411C26.8287 30.4411 26.6176 30.3193 26.6176 29.9726C26.6176 29.6447 26.8287 29.5323 27.0949 29.5323C28.0219 29.5229 28.9581 29.5136 29.8851 29.5229C30.1972 29.5229 30.3716 29.7103 30.3624 30.0288C30.3532 30.3474 30.1421 30.4505 29.8667 30.4505C29.417 30.4411 28.9581 30.4411 28.4992 30.4411Z" fill="#4832AB"/>
<path d="M41.2572 30.4415C40.936 30.4415 40.6055 30.4883 40.3027 30.4227C40.1283 30.3853 39.908 30.1885 39.8529 30.0199C39.7703 29.7294 39.9906 29.5514 40.2659 29.542C40.9176 29.5233 41.5785 29.5139 42.2301 29.5327C42.5055 29.542 42.79 29.7013 42.7166 30.0105C42.6799 30.1885 42.4045 30.3759 42.2118 30.4227C41.9089 30.4977 41.5785 30.4508 41.2572 30.4415Z" fill="#4832AB"/>
<path d="M55.7317 30.4412C55.4104 30.4412 55.0892 30.4506 54.7679 30.4412C54.4742 30.4318 54.3274 30.2538 54.3274 29.9634C54.3274 29.6729 54.5018 29.5324 54.7679 29.5324C55.3921 29.523 56.0162 29.523 56.6495 29.5324C56.934 29.5324 57.1084 29.673 57.1084 29.9915C57.1084 30.3288 56.9249 30.4599 56.6128 30.4599C56.3191 30.4412 56.0254 30.4506 55.7317 30.4412Z" fill="#4832AB"/>
<path d="M37.5767 26.3189C37.8795 26.3189 38.1916 26.2721 38.4853 26.3377C38.6597 26.3752 38.8892 26.5719 38.9442 26.7405C39.0268 27.0122 38.8157 27.2277 38.5404 27.2371C37.8887 27.2558 37.237 27.2652 36.5854 27.2184C36.4385 27.209 36.1999 26.9186 36.2182 26.7687C36.2274 26.6094 36.4661 26.3845 36.6313 26.3471C36.925 26.2721 37.2554 26.3189 37.5767 26.3189Z" fill="#4832AB"/>
<path d="M1.67048 55.1946C1.67048 55.4101 1.58788 55.5975 1.43184 55.7568C1.27581 55.916 1.08306 56.0004 0.862776 56.0004C0.761813 56.0004 0.651671 55.9816 0.532351 55.9442C0.413031 55.9067 0.321246 55.8411 0.23864 55.7661C0.0826062 55.6069 0 55.4101 0 55.1853V41.722C0 41.4972 0.0826062 41.3004 0.23864 41.1411C0.394674 40.9819 0.587422 40.8976 0.807705 40.8976C1.02799 40.8976 1.22074 40.9819 1.37677 41.1411C1.5328 41.3004 1.61541 41.4972 1.61541 41.7127V42.2654C2.08351 41.8345 2.59751 41.4972 3.14822 41.2536C3.7081 41.01 4.32306 40.8882 4.97473 40.8882C5.68147 40.8882 6.32397 41.0194 6.90221 41.2723C7.50799 41.544 8.03116 41.9 8.47173 42.3591C8.93065 42.8276 9.27943 43.3522 9.53643 43.9425C9.79343 44.5608 9.9311 45.2073 9.9311 45.8912C9.9311 46.5752 9.80261 47.2497 9.55479 47.84C9.30697 48.4302 8.94901 48.9549 8.49008 49.4233C8.03116 49.8918 7.51717 50.2572 6.93892 50.5101C6.36068 50.7631 5.72737 50.8943 5.0298 50.8943C4.37813 50.8943 3.76317 50.7725 3.20329 50.5382C2.65258 50.2947 2.13858 49.9667 1.67048 49.5358V55.1946ZM4.87377 49.4233C5.30516 49.4233 5.73654 49.3296 6.16793 49.1423C6.57178 48.9736 6.92975 48.73 7.23263 48.4209C7.51717 48.1304 7.75581 47.765 7.93938 47.3341C8.12295 46.8937 8.21473 46.4534 8.21473 46.013C8.21473 45.5352 8.13212 45.0949 7.95773 44.692C7.77416 44.2798 7.53552 43.9144 7.25099 43.6052C6.9481 43.3148 6.59932 43.0712 6.18629 42.8838C5.7549 42.6964 5.32351 42.6027 4.89212 42.6027C4.42402 42.6027 3.99263 42.687 3.59796 42.865C3.17575 43.0524 2.82697 43.296 2.53326 43.5865C2.23037 43.8956 1.99173 44.2517 1.82652 44.6733C1.65212 45.0761 1.56952 45.5165 1.56952 45.9943C1.56952 46.4346 1.6613 46.875 1.84487 47.3153C2.01926 47.7463 2.24873 48.1023 2.55161 48.4021C2.83615 48.7113 3.19411 48.9455 3.61632 49.1235C3.82742 49.2172 4.02935 49.2922 4.23127 49.339C4.4332 49.3952 4.65348 49.4233 4.87377 49.4233Z" fill="#9146FE"/>
<path d="M12.1064 41.3566C12.1248 41.2723 12.1798 41.188 12.2533 41.1037C12.3359 41.0194 12.4185 40.9725 12.5011 40.9444C12.5837 40.9163 12.6846 40.9069 12.7856 40.9069C13.0059 40.9069 13.1986 40.9912 13.3547 41.1505C13.5107 41.3098 13.5933 41.4972 13.5933 41.7127V42.2561C14.0614 41.8251 14.5754 41.4972 15.1261 41.2536C15.686 41.01 16.301 40.8882 16.9526 40.8882C17.1729 40.8882 17.3657 40.9725 17.5217 41.1318C17.6777 41.2911 17.7603 41.4784 17.7603 41.6939C17.7603 41.9094 17.6777 42.0968 17.5217 42.2561C17.3657 42.4153 17.1821 42.4997 16.971 42.4997C16.5029 42.4997 16.0715 42.584 15.6768 42.762C15.2546 42.9494 14.9058 43.193 14.6121 43.4834C14.3092 43.7926 14.0706 44.1486 13.9054 44.5702C13.731 44.9731 13.6484 45.4134 13.6484 45.8912V50.0979C13.6484 50.3134 13.5658 50.5008 13.4097 50.66C13.2537 50.8193 13.0701 50.9036 12.859 50.9036C12.6479 50.9036 12.4644 50.8193 12.3083 50.66C12.1523 50.5008 12.0697 50.304 12.0697 50.0792V41.6564C12.0789 41.5346 12.088 41.441 12.1064 41.3566Z" fill="#9146FE"/>
<path d="M23.35 50.8659C23.0104 50.8659 22.68 50.8377 22.3679 50.7815C22.0559 50.7253 21.7438 50.6316 21.4409 50.5005C21.138 50.3693 20.8627 50.2194 20.6057 50.0695C20.3487 49.9196 20.11 49.7228 19.8898 49.498C19.44 49.0483 19.0912 48.5049 18.825 47.8959C18.5772 47.3056 18.4487 46.6498 18.4487 45.9284C18.4487 45.207 18.5772 44.5793 18.8434 43.9609C19.1096 43.3426 19.4584 42.8085 19.9081 42.3588C20.3579 41.8997 20.881 41.5437 21.4776 41.272C22.0834 41.0003 22.7259 40.8691 23.4051 40.8691C24.0843 40.8691 24.7543 41.0003 25.3326 41.2533C25.9384 41.525 26.4615 41.881 26.9021 42.3401C27.361 42.8085 27.7098 43.3332 27.9668 43.9234C28.233 44.5418 28.3615 45.1882 28.3615 45.8722C28.3615 46.5561 28.233 47.2307 27.9852 47.8209C27.7373 48.4112 27.3794 48.9358 26.9205 49.4043C26.4615 49.8727 25.9475 50.2288 25.3693 50.4911C24.7911 50.7534 24.1577 50.8752 23.4602 50.8752L23.35 50.8659ZM23.3133 49.4043C23.7814 49.4043 24.2128 49.32 24.6075 49.142C25.0113 48.9733 25.3693 48.7297 25.6722 48.4205C25.9567 48.1301 26.1954 47.7647 26.3789 47.3337C26.5625 46.8934 26.6543 46.4531 26.6543 46.0127C26.6543 45.5349 26.5717 45.0946 26.3973 44.6917C26.2137 44.2795 25.9751 43.9141 25.6905 43.6049C25.3877 43.3144 25.0389 43.0709 24.6258 42.8835C24.1945 42.6961 23.7631 42.6024 23.3317 42.6024C22.8636 42.6024 22.4322 42.6867 22.0375 42.8647C21.6153 43.0521 21.2665 43.2957 20.9728 43.5861C20.6791 43.8766 20.4313 44.2513 20.2661 44.673C20.0917 45.0758 20.0091 45.5162 20.0091 45.994C20.0091 46.4343 20.1009 46.8747 20.2844 47.315C20.4588 47.746 20.6883 48.102 20.9912 48.4018C21.2757 48.711 21.6337 48.9452 22.0559 49.1232C22.267 49.2169 22.4689 49.2919 22.6525 49.3293C22.8452 49.3762 23.0471 49.4043 23.2674 49.4043H23.3133Z" fill="#9146FE"/>
<path d="M38.2375 49.7042C37.8061 50.1165 37.2921 50.4444 36.7047 50.688C36.1265 50.9316 35.5207 51.044 34.8782 51.044C34.2357 51.044 33.5748 50.9128 32.9691 50.6411C32.3908 50.3882 31.8768 50.0228 31.4179 49.5543C30.9682 49.1046 30.6194 48.5612 30.3532 47.9522C30.1054 47.362 29.9769 46.7061 29.9769 45.9847C29.9769 45.2633 30.1054 44.6356 30.3716 44.0172C30.6377 43.3989 30.9865 42.8649 31.4363 42.4151C31.886 41.9561 32.4092 41.6 33.0058 41.3283C33.6116 41.0566 34.2449 40.9255 34.9333 40.9255C35.5758 40.9255 36.1815 41.0473 36.7598 41.2909C37.3472 41.5345 37.8612 41.8624 38.2926 42.2746V41.7312C38.2926 41.5064 38.3752 41.3096 38.5312 41.1503C38.6873 40.9911 38.8708 40.9067 39.0911 40.9067C39.3114 40.9067 39.495 40.9911 39.651 41.1503C39.807 41.3096 39.8805 41.497 39.8805 41.7125V50.9316C39.8805 51.6436 39.7611 52.2901 39.5133 52.8803C39.2655 53.4706 38.9167 53.9952 38.467 54.4637C38.008 54.9321 37.4941 55.2881 36.9158 55.5505C36.3376 55.8034 35.7042 55.9346 35.0067 55.9346C34.3091 55.9346 33.7033 55.8034 33.0976 55.5317C32.5193 55.2788 32.0053 54.9134 31.5464 54.4449C31.3995 54.2669 31.3261 54.0795 31.3261 53.8641C31.3261 53.6486 31.3995 53.4612 31.5464 53.2832C31.7208 53.1333 31.9044 53.0677 32.1155 53.0677C32.3266 53.0677 32.5193 53.1426 32.6845 53.2832C32.9691 53.5924 33.327 53.8266 33.7492 54.0046C34.1439 54.1732 34.5753 54.2669 35.0434 54.2669C35.4748 54.2669 35.9062 54.1732 36.3376 53.9859C36.7414 53.8078 37.0994 53.5736 37.4023 53.2644C37.6868 52.974 37.9254 52.6086 38.109 52.1776C38.2926 51.7373 38.3844 51.297 38.3844 50.8566V49.5168L38.2375 49.7042ZM34.8507 49.4794C35.282 49.4794 35.7134 49.3857 36.1448 49.1983C36.5487 49.0297 36.9066 48.7861 37.2003 48.4769C37.494 48.1677 37.7235 47.8211 37.9071 47.3901C38.0907 46.9497 38.1824 46.5094 38.1824 46.0691C38.1824 45.5912 38.0998 45.1509 37.9254 44.748C37.7419 44.3358 37.5032 43.9704 37.2187 43.6612C36.9158 43.3708 36.567 43.1272 36.154 42.9398C35.7226 42.7524 35.2912 42.6587 34.8598 42.6587C34.3917 42.6587 33.9603 42.7431 33.5657 42.9211C33.1526 43.1085 32.7947 43.352 32.5101 43.6425C32.2073 43.9517 31.9778 44.3077 31.8034 44.7293C31.629 45.1322 31.5464 45.5725 31.5464 46.0503C31.5464 46.4907 31.6382 46.931 31.8218 47.3713C31.9961 47.8023 32.2256 48.1583 32.5285 48.4581C32.813 48.7673 33.171 49.0016 33.584 49.1796C33.7951 49.2733 33.9971 49.3482 34.2082 49.395C34.4193 49.4513 34.6304 49.4794 34.8507 49.4794Z" fill="#9146FE"/>
<path d="M49.9125 49.6386C49.4811 50.0508 48.9671 50.3788 48.3797 50.6224C47.8015 50.8659 47.1957 50.9784 46.5532 50.9784C45.9107 50.9784 45.2499 50.8472 44.6441 50.5755C44.0658 50.3225 43.5518 49.9572 43.0929 49.4887C42.6432 49.039 42.2944 48.4956 42.0282 47.8866C41.7804 47.2964 41.6519 46.6405 41.6519 45.9191C41.6519 45.1977 41.7804 44.57 42.0466 43.9516C42.3128 43.3333 42.6615 42.7992 43.1113 42.3495C43.561 41.8905 44.0842 41.5344 44.6808 41.2627C45.2866 40.991 45.9199 40.8599 46.6083 40.8599C47.2875 40.8599 47.9575 40.991 48.5358 41.244C49.1415 41.5157 49.6647 41.8717 50.1053 42.3308C50.5642 42.7992 50.913 43.3239 51.17 43.9142C51.427 44.5325 51.5646 45.179 51.5646 45.8629V50.0696C51.5646 50.2851 51.482 50.4725 51.326 50.6317C51.17 50.791 50.9864 50.8753 50.7753 50.8753C50.5642 50.8753 50.3806 50.791 50.2246 50.6317C50.0686 50.4725 49.986 50.2757 49.986 50.0508V49.5074L49.9125 49.6386ZM46.5348 49.4231C46.9662 49.4231 47.3976 49.3294 47.829 49.1421C48.2329 48.9734 48.5908 48.7298 48.8937 48.4206C49.1782 48.1302 49.4169 47.7648 49.6005 47.3338C49.784 46.8935 49.8758 46.4532 49.8758 46.0128C49.8758 45.535 49.7932 45.0946 49.6188 44.6918C49.4352 44.2795 49.1966 43.9142 48.9121 43.605C48.6092 43.3145 48.2604 43.0709 47.8474 42.8836C47.416 42.6962 46.9846 42.6025 46.5532 42.6025C46.0851 42.6025 45.6537 42.6868 45.259 42.8648C44.8368 43.0522 44.488 43.2958 44.1943 43.5862C43.9006 43.8767 43.6528 44.2514 43.4876 44.673C43.3132 45.0759 43.2306 45.5163 43.2306 45.9941C43.2306 46.4344 43.3224 46.8748 43.506 47.3151C43.6803 47.7461 43.9098 48.1021 44.2127 48.4019C44.4972 48.7111 44.8552 48.9453 45.2774 49.1233C45.4885 49.217 45.6996 49.292 45.9199 49.3388C46.1402 49.395 46.3513 49.4231 46.5807 49.4231H46.5348Z" fill="#9146FE"/>
<path d="M67.8197 44.7388C67.7922 44.5889 67.7463 44.4203 67.682 44.2516C67.6178 44.0736 67.5444 43.9143 67.4709 43.7738C67.3883 43.6239 67.2874 43.4834 67.1589 43.3522C67.0304 43.221 66.8835 43.0899 66.7275 42.9681C66.5714 42.8463 66.4062 42.7526 66.241 42.687C66.0666 42.6214 65.8831 42.5746 65.6719 42.5558C65.4608 42.5371 65.2681 42.5277 65.0845 42.5277C64.7357 42.5277 64.3778 42.6027 64.0198 42.7526C63.6802 42.9025 63.3865 43.0992 63.1387 43.3522C62.8725 43.6239 62.6798 43.9237 62.5513 44.2516C62.4044 44.617 62.3402 44.973 62.3402 45.3384V50.1541C62.3402 50.3696 62.2576 50.557 62.1015 50.7162C61.9455 50.8755 61.7619 50.9598 61.5508 50.9598C61.3397 50.9598 61.1561 50.8755 61.0001 50.7162C60.8441 50.557 60.7615 50.3602 60.7615 50.1353V45.3197C60.7615 44.9543 60.688 44.5983 60.5504 44.2329C60.4035 43.8956 60.2108 43.5958 59.9629 43.3335C59.6968 43.0805 59.4031 42.8744 59.0818 42.7338C58.733 42.5839 58.3751 42.509 58.0171 42.509C57.6591 42.509 57.3104 42.5839 56.9524 42.7338C56.6128 42.8838 56.3191 43.0805 56.0713 43.3335C55.8051 43.6052 55.6123 43.905 55.4838 44.2329C55.337 44.5983 55.2727 44.9543 55.2727 45.3197V50.126C55.2727 50.3415 55.1901 50.5288 55.0341 50.6881C54.8781 50.8474 54.6945 50.9317 54.4834 50.9317C54.2723 50.9317 54.0887 50.8474 53.9327 50.6881C53.7767 50.5288 53.694 50.3321 53.694 50.1072V41.6845C53.694 41.4597 53.7767 41.2629 53.9327 41.1036C54.0887 40.9444 54.2815 40.86 54.5018 40.86C54.722 40.86 54.9148 40.9444 55.0708 41.1036C55.2269 41.2629 55.3095 41.4503 55.3095 41.6658V41.8625C55.6766 41.5721 56.0988 41.3285 56.5853 41.1411C57.0717 40.9537 57.5674 40.86 58.0814 40.86C58.8156 40.86 59.4857 41.0287 60.0823 41.366C60.6972 41.7126 61.202 42.1717 61.5967 42.7526C61.9914 42.1811 62.4962 41.722 63.1112 41.366C63.7261 41.0193 64.3961 40.8413 65.1121 40.8413C65.6903 40.8413 66.241 40.9631 66.7825 41.2067C67.3057 41.4503 67.7646 41.7688 68.1593 42.1717C68.554 42.5746 68.8661 43.043 69.1047 43.5771C69.3433 44.1298 69.4535 44.692 69.4535 45.2822V50.0979C69.4535 50.3134 69.3709 50.5007 69.2148 50.66C69.0588 50.8193 68.8752 50.9036 68.6641 50.9036C68.453 50.9036 68.2695 50.8193 68.1134 50.66C67.9574 50.5007 67.8748 50.304 67.8748 50.0791V45.2635C67.8656 45.0574 67.8472 44.8887 67.8197 44.7388Z" fill="#9146FE"/>
<path d="M72.7302 46.6594C72.7853 46.8467 72.8403 47.0435 72.9138 47.259C72.9872 47.4745 73.079 47.6525 73.1799 47.8211C73.2809 47.9898 73.391 48.1303 73.5012 48.2708C73.6113 48.4114 73.7398 48.5332 73.8867 48.6362C74.1896 48.8611 74.5108 49.0391 74.8504 49.1702C75.19 49.3014 75.5663 49.367 75.9702 49.367C76.4016 49.367 76.833 49.2733 77.2644 49.0859C77.6682 48.9173 78.0262 48.6737 78.3291 48.3645C78.4943 48.2146 78.687 48.149 78.8981 48.149C79.1092 48.149 79.2928 48.224 79.4672 48.3645C79.614 48.5425 79.6783 48.7205 79.6783 48.9267C79.6783 49.1328 79.6049 49.3108 79.4672 49.4888C79.0266 49.9479 78.4943 50.3133 77.8977 50.585C77.3194 50.8473 76.6861 50.9691 75.9885 50.9691C75.291 50.9691 74.6852 50.8379 74.0794 50.5662C73.5012 50.3133 72.9872 49.9479 72.5283 49.4794C72.0877 49.0297 71.7389 48.4863 71.4819 47.8773C71.2341 47.2871 71.1148 46.6313 71.1148 45.9098C71.1148 45.1884 71.2433 44.5607 71.5003 43.9424C71.7573 43.324 72.1061 42.79 72.5466 42.3403C72.9872 41.8812 73.5104 41.5252 74.1161 41.2535C74.7219 40.9818 75.3552 40.8506 76.0436 40.8506C76.732 40.8506 77.3929 40.9818 77.9711 41.2347C78.5769 41.5064 79.1 41.8624 79.5406 42.3215C79.9995 42.79 80.3483 43.3146 80.6053 43.9049C80.8623 44.5232 81 45.1697 81 45.8536C81 46.0691 80.9174 46.2565 80.7614 46.4158C80.6053 46.575 80.4217 46.6594 80.2106 46.6594H72.7302ZM79.1918 45.1697C79.0909 44.7856 78.944 44.4389 78.7604 44.1391C78.5493 43.8112 78.3199 43.5395 78.0537 43.324C77.7783 43.1085 77.4663 42.9305 77.1083 42.79C76.7687 42.6588 76.3924 42.5932 75.9885 42.5932C75.5847 42.5932 75.2084 42.6588 74.8688 42.79C74.5292 42.9211 74.2079 43.0991 73.905 43.324C73.6297 43.5207 73.391 43.7925 73.1799 44.1391C72.9964 44.4483 72.8495 44.7856 72.7485 45.1697H79.1918Z" fill="#9146FE"/>
</svg>
